<?xml version="1.0" encoding="utf-8"?>
<!-- Generator: Adobe Illustrator 16.0.4, SVG Export Plug-In . SVG Version: 6.00 Build 0)  -->
<!DOCTYPE svg PUBLIC "-//W3C//DTD SVG 1.1//EN" "http://www.w3.org/Graphics/SVG/1.1/DTD/svg11.dtd">
<svg version="1.1" fill="rgba(229, 221, 196, 1)" id="Layer_1" xmlns="http://www.w3.org/2000/svg" xmlns:xlink="http://www.w3.org/1999/xlink" x="0px" y="0px"
	 width="880.25px" height="141.071px" xml:space="preserve">
<g>
	<path d="M704.3,58.394c0.743-1.398,2.373-2.012,4.309-0.879c1.315,0.592,1.795,2.216,0.971,3.573l0,0c0,0-0.114,0.36-0.452,0.919
		c-0.193,0.319-0.358,0.761-0.6,1.159c-0.146,0.24-0.291,0.479-0.437,0.719s-0.34,0.559-0.533,0.877
		c-0.388,0.638-0.823,1.356-1.338,2.033c-0.565,0.756-1.128,1.512-1.82,2.307c-1.51,1.625-3.324,3.406-5.9,4.889
		c-0.656,0.39-1.344,0.66-2.079,1.008c-0.765,0.227-1.53,0.454-2.297,0.681c-0.798,0.106-1.645,0.29-2.439,0.396
		c-0.827-0.016-1.702,0.047-2.531,0.03c-3.342-0.188-6.611-1.183-9.815-2.458c-1.603-0.638-3.237-1.397-4.821-2.237
		c-0.396-0.21-0.713-0.377-1.109-0.587c-0.396-0.209-0.793-0.419-1.188-0.63c-0.841-0.34-1.713-0.801-2.475-1.1
		c-0.841-0.339-1.553-0.717-2.442-0.977c-0.89-0.261-1.729-0.601-2.619-0.86c-1.778-0.521-3.686-1.003-5.607-1.284
		c-3.879-0.683-8.079-1.01-12.381-0.652c-4.3,0.359-8.734,1.279-13.03,3.011c-4.3,1.731-8.49,4.153-12.21,7.348
		c-0.899,0.79-1.719,1.623-2.665,2.492l-0.673,0.592l-0.644,0.714c-0.419,0.517-0.917,0.991-1.285,1.428
		c-1.657,1.864-3.282,3.852-4.877,5.96c-6.328,8.354-12.599,17.477-20.725,25.512c-3.998,3.999-8.551,7.705-13.465,10.796
		c-4.913,3.092-10.378,5.365-15.978,6.829c-5.602,1.461-11.368,1.993-17.033,1.839c-1.449-0.031-2.849-0.138-4.248-0.247
		c-1.32-0.067-2.752-0.298-4.104-0.485c-1.353-0.188-2.733-0.499-4.086-0.688c-1.382-0.31-2.732-0.5-4.036-0.766
		c-2.687-0.579-5.31-0.915-7.932-1.25c-1.322-0.067-2.673-0.256-3.993-0.323c-1.369,0.011-2.69-0.054-4.012-0.122
		c-5.299-0.064-10.623,0.596-15.632,1.951l-1.872,0.489l-1.835,0.609c-1.277,0.379-2.412,1.042-3.61,1.462
		c-2.335,1.084-4.637,2.29-6.67,3.744c-0.529,0.352-1.059,0.705-1.508,1.099c-0.527,0.354-1.056,0.706-1.506,1.102
		c-0.977,0.747-1.953,1.494-2.821,2.406c-1.766,1.701-3.421,3.566-4.95,5.393c-3.025,3.776-5.448,7.766-7.616,11.681
		c-1.004,2-2.086,3.956-3.043,5.876c-0.502,0.998-1.035,1.876-1.616,2.833c-0.533,0.877-1.115,1.835-1.727,2.672
		c-4.806,7.051-10.631,12.51-16.442,16.391c-0.704,0.47-1.488,0.898-2.193,1.368c-0.705,0.472-1.489,0.9-2.145,1.29
		c-1.47,0.697-2.782,1.48-4.205,2.097c-1.422,0.618-2.636,1.24-3.962,1.698c-1.326,0.459-2.523,0.878-3.722,1.301
		c-4.852,1.437-8.567,2.21-11.213,2.602c-2.596,0.312-3.984,0.524-3.984,0.524s1.388-0.213,3.953-0.647
		c2.568-0.432,6.411-1.243,11.104-2.765c1.118-0.465,2.396-0.841,3.641-1.343c1.326-0.459,2.541-1.079,3.963-1.697
		c1.295-0.579,2.733-1.398,4.126-2.139c0.705-0.47,1.36-0.86,2.065-1.332c0.704-0.47,1.41-0.94,2.113-1.41
		c5.654-3.966,11.353-9.385,15.95-16.441c0.532-0.877,1.066-1.754,1.647-2.713c0.532-0.877,0.986-1.796,1.488-2.797
		c1.005-1.999,2.009-3.998,3.013-5.997c2.087-3.958,4.48-8.069,7.553-11.925c1.579-1.905,3.234-3.771,5.048-5.552
		c0.868-0.911,1.895-1.739,2.842-2.607c0.527-0.354,1.025-0.828,1.553-1.181c0.498-0.474,1.027-0.827,1.555-1.181
		c2.085-1.534,4.436-2.819,6.816-3.981c1.167-0.543,2.383-1.166,3.659-1.544l1.885-0.688l1.914-0.567
		c5.188-1.471,10.638-2.17,16.115-2.224c1.448,0.03,2.768,0.096,4.137,0.084c1.4,0.109,2.722,0.175,4.121,0.285
		c2.752,0.296,5.503,0.595,8.108,1.131c1.353,0.188,2.655,0.456,4.007,0.646c1.303,0.269,2.606,0.537,4.007,0.646
		c1.351,0.188,2.702,0.377,4.023,0.443c1.369-0.013,2.721,0.176,4.09,0.163c5.458,0.15,10.988-0.507,16.253-1.937
		c5.266-1.43,10.396-3.669,15.054-6.686c4.609-2.936,8.907-6.566,12.65-10.489c7.693-7.843,13.711-16.89,20.056-25.446
		c1.643-2.188,3.189-4.216,4.99-6.32c0.468-0.597,0.916-0.992,1.335-1.509l0.691-0.792l0.721-0.673
		c0.917-0.992,1.863-1.861,2.858-2.81c4.043-3.554,8.605-6.412,13.333-8.336c4.729-1.924,9.642-3.119,14.327-3.59
		c4.763-0.43,9.266-0.259,13.559,0.433c2.21,0.327,4.244,0.771,6.229,1.296c0.97,0.302,1.938,0.604,2.907,0.906
		c0.968,0.302,1.887,0.683,2.807,1.066c0.92,0.38,1.762,0.721,2.555,1.14c0.444,0.13,0.84,0.341,1.236,0.55
		c0.396,0.21,0.791,0.419,1.188,0.63c1.505,0.797,2.981,1.473,4.424,2.027c2.966,1.149,5.762,1.892,8.246,1.942
		c2.482,0.049,4.604-0.515,6.348-1.489c3.377-2.113,5.474-5.222,6.685-7.217c0.146-0.239,0.291-0.479,0.437-0.719
		c0.145-0.239,0.29-0.479,0.436-0.718c0.212-0.521,0.405-0.84,0.599-1.159C704.105,58.713,704.3,58.394,704.3,58.394
		S704.22,58.352,704.3,58.394z"/>
</g>
<g>
	<path d="M603.624,89.975c0.901-0.98,2.37-0.999,2.791-0.326c0.863,0.812,0.881,2.283,0.067,3.146c0,0-0.347,0.474-1.073,1.219
		c-0.812,0.863-1.8,1.963-3.458,3.483c-0.726,0.746-1.743,1.641-2.676,2.417c-1.021,0.895-2.069,1.584-3.293,2.51
		c-1.257,0.722-2.599,1.562-3.942,2.402c-1.463,0.753-3.043,1.42-4.592,2.292c-1.578,0.667-3.363,1.365-5.15,2.063
		c-1.818,0.493-3.724,1.104-5.746,1.629c-4.078,0.843-8.394,1.513-12.836,1.362c-1.061-0.046-2.207,0.027-3.385-0.106
		c-0.972-0.164-2.15-0.297-3.328-0.43l-1.709-0.155l-1.74-0.362c-1.092-0.251-2.301-0.589-3.393-0.84
		c-1.09-0.252-2.213-0.709-3.337-1.166l-1.685-0.686l-0.887-0.284l-0.799-0.402l-3.195-1.608c-0.562-0.228-1.123-0.456-1.6-0.804
		l-1.425-1.042l-2.937-1.965c-0.561-0.228-0.949-0.694-1.424-1.042l-1.338-1.16c-0.861-0.812-1.812-1.507-2.675-2.32
		s-1.606-1.54-2.47-2.353s-1.607-1.539-2.471-2.352c-0.863-0.814-1.695-1.421-2.557-2.234c-0.832-0.608-1.693-1.421-2.525-2.028
		c-0.83-0.607-1.781-1.302-2.611-1.909c-1.575-1.333-3.442-2.516-5.105-3.732c-1.662-1.215-3.41-2.311-5.041-3.321
		c-3.379-2.107-6.725-4.007-9.803-5.528c-3.077-1.522-5.918-2.869-8.605-3.924c-2.605-1.175-4.938-1.97-6.83-2.624
		c-3.78-1.306-6.082-1.896-6.082-1.896s2.389,0.471,6.256,1.659c1.979,0.536,4.312,1.329,7.002,2.386
		c2.689,1.056,5.615,2.284,8.781,3.687c3.197,1.609,6.51,3.303,9.977,5.291c1.836,0.978,3.584,2.074,5.333,3.17
		c1.866,1.184,3.616,2.28,5.397,3.582c0.83,0.608,1.66,1.215,2.61,1.91c0.864,0.813,1.695,1.42,2.644,2.114
		c0.951,0.695,1.694,1.421,2.645,2.116c0.863,0.813,1.695,1.421,2.557,2.233c0.744,0.727,1.694,1.421,2.559,2.235
		c0.949,0.694,1.693,1.42,2.643,2.114l1.338,1.161c0.477,0.347,0.95,0.694,1.426,1.041l2.817,1.878l1.511,0.923
		c0.356,0.26,0.918,0.488,1.48,0.717l3.076,1.521l0.8,0.402l0.767,0.197l1.566,0.598c1.122,0.457,2.128,0.828,3.219,1.079
		c1.092,0.25,2.184,0.502,3.273,0.753l1.621,0.275l1.709,0.156c1.06,0.046,2.15,0.297,3.209,0.343
		c1.061,0.046,2.089-0.114,3.147-0.068c4.119,0.096,8.197-0.747,11.951-1.646c1.817-0.494,3.604-1.192,5.302-1.771
		c1.668-0.786,3.366-1.364,4.828-2.118c1.549-0.871,2.922-1.507,4.266-2.347c1.226-0.926,2.481-1.647,3.619-2.455
		c1.135-0.808,2.067-1.584,3-2.361c0.932-0.777,1.658-1.52,2.297-2.146c1.397-1.164,2.44-2.589,3.166-3.333
		C603.277,90.45,603.624,89.975,603.624,89.975S605,89.893,603.624,89.975z"/>
</g>
<g>
	<path d="M695.863,72.48c0,0,0.73,0.396,2.216,1.052c0.729,0.397,1.574,0.792,2.649,1.179c1.077,0.385,2.24,0.912,3.521,1.433
		c2.676,1.039,6.015,2.198,9.985,3.06c3.943,1.004,8.514,1.712,13.687,2.262c5.056,0.555,10.741,0.814,16.695,1.483
		c2.919,0.334,6.018,0.944,8.923,1.978c2.906,1.033,5.825,2.622,8.129,5.062c2.42,2.439,4.134,5.593,5.312,9.18
		c0.28,0.967,0.589,1.792,0.87,2.76c0.166,0.968,0.446,1.935,0.64,2.764c0.332,1.941,0.664,3.88,0.996,5.819
		c1.382,7.479,4.107,14.502,7.986,20.24c3.879,5.738,8.883,10.331,14.439,13.795c5.556,3.464,11.715,5.518,17.911,6.736
		c6.197,1.219,12.572,1.458,18.667,0.73c3.047-0.364,6.12-0.867,9.014-1.644c2.92-0.918,5.659-2.109,8.246-3.711
		c5.174-3.208,9.515-7.505,12.818-11.773c3.305-4.269,5.687-8.513,7.457-11.903c1.792-3.531,2.997-6.348,3.701-8.317
		c0.703-1.969,1.024-3.09,1.024-3.09s-0.319,1.122-1.024,3.09c-0.705,1.97-1.909,4.786-3.612,8.454
		c-1.794,3.53-4.175,7.772-7.363,12.039c-3.304,4.268-7.581,8.842-12.869,12.053c-2.587,1.604-5.494,3.077-8.413,3.993
		c-2.92,0.919-5.993,1.42-9.065,1.924c-6.21,0.732-12.611,0.631-18.948-0.443c-6.337-1.076-12.61-3.128-18.423-6.444
		c-5.812-3.319-11.048-7.905-15.131-13.776c-4.083-5.873-7.04-12.89-8.601-20.642c-0.333-1.939-0.69-3.739-1.138-5.675
		c-0.19-0.829-0.474-1.795-0.666-2.626c-0.19-0.829-0.613-1.653-0.806-2.482c-1.229-3.307-2.88-6.184-5.005-8.35
		c-4.364-4.333-10.445-5.556-16.168-6.231c-5.863-0.531-11.549-0.79-16.746-1.203c-5.2-0.411-9.884-1.115-14.059-2.11
		c-4.058-1-7.54-2.019-10.331-3.051c-1.396-0.52-2.677-1.041-3.751-1.428c-1.075-0.387-1.92-0.78-2.65-1.178
		c-1.369-0.658-2.215-1.053-2.215-1.053c-0.846-0.394-1.076-1.641-0.55-2.628C693.88,72.674,695.019,72.086,695.863,72.48
		C695.747,72.483,695.863,72.48,695.863,72.48z"/>
</g>
<g>
	<path d="M695.5,72.893c0,0,2.387,0.877,1.75,2c-0.263,0.604,0.696,1.636,0.25,2.5c-0.451,0.863-2-0.25-4.25,1
		c-1.75,2.5-4.267,5.182-5.148,6.389c-0.885,1.208-1.896,2.589-3.023,3.883c-2.32,2.676-5.074,5.691-8.787,8.275
		c-3.711,2.584-8.322,4.906-13.934,6.102c-5.611,1.193-12.276,1.088-19.026-0.143c-1.63-0.264-3.378-0.614-5.006-0.879
		c-0.847-0.088-1.511-0.176-2.356-0.267l-2.301-0.093c-3.153,0.077-6.078,0.588-8.89,1.443c-5.689,1.801-10.626,4.812-14.739,8.691
		c-4.23,3.792-7.695,8.279-10.201,13.202c-2.508,4.922-4.239,10.278-4.705,15.897c-0.647,5.619,0.879,11.504,0.602,16.863
		c-0.095,5.36-0.902,10.202-1.757,14.608c-0.974,4.321-2.297,8.122-3.485,11.491c-1.308,3.283-2.481,6.132-3.576,8.379
		c-2.191,4.488-3.776,6.906-3.776,6.906s1.468-2.504,3.54-7.08c1.095-2.246,2.148-5.184,3.273-8.467
		c1.126-3.283,2.212-7.259,3.122-11.492c0.856-4.407,1.418-9.162,1.331-14.523c0.151-5.188-1.549-11.332-1.02-17.038
		c0.41-5.794,1.968-11.409,4.418-16.504c2.515-5.181,5.923-9.841,10.044-13.979c4.238-4.053,9.246-7.41,15.124-9.469
		c2.938-1.029,6.171-1.713,9.569-1.875c0.908,0.002,1.699-0.082,2.546,0.006c0.846,0.09,1.874,0.18,2.722,0.27
		c1.628,0.264,3.376,0.613,5.005,0.878c6.515,1.058,12.396,0.987,17.523-0.295c5.066-1.195,9.188-3.347,12.537-5.931
		c3.403-2.412,5.913-5.346,8.054-8.02c1.01-1.38,2.072-2.589,2.775-3.797c0.884-1.208,1.522-2.331,2.162-3.453
		c0.574-1.035,1.206-1.898,1.654-2.762c0.45-0.863,0.835-1.643,1.097-2.246c0.638-1.123,0.961-1.812,0.961-1.812
		c0.576-1.037,2.158-1.205,3.524-0.336c1.192,0.612,1.875,2.17,1.3,3.207L695.5,72.893z"/>
</g>
</svg>
