<?xml version="1.0" encoding="utf-8"?>
<!-- Generator: Adobe Illustrator 16.0.4, SVG Export Plug-In . SVG Version: 6.00 Build 0)  -->
<!DOCTYPE svg PUBLIC "-//W3C//DTD SVG 1.1//EN" "http://www.w3.org/Graphics/SVG/1.1/DTD/svg11.dtd">
<svg version="1.1" id="Layer_1" xmlns="http://www.w3.org/2000/svg" xmlns:xlink="http://www.w3.org/1999/xlink" x="0px" y="0px"
	 width="861.5px" height="349.286px" viewBox="0 0 861.5 349.286" enable-background="new 0 0 861.5 349.286" xml:space="preserve">
<g>
	<path fill="rgba(229, 221, 196, 1)" d="M334.25,335.251c0-4.265-3.146-12.921-3-17.333c-1.333-3.334-0.546-11.852-0.546-14.058
		c0.146-2.206,0.294-4.412,0.294-6.618c0.146-4.411,0.734-8.823,1.028-13.235l0.884-6.617c0.146-1.029,0.294-2.206,0.44-3.235
		l0.588-3.235c0.441-2.206,0.735-4.412,1.323-6.618l1.618-6.471c0.588-2.205,1.323-4.265,1.911-6.47
		c0.589-2.206,1.471-4.265,2.354-6.324c1.472-4.265,3.678-8.235,5.735-12.205c1.176-1.912,2.353-3.824,3.529-5.735
		c0.294-0.441,0.588-1.029,0.882-1.471l1.029-1.324l1.911-2.646l1.912-2.647c0.735-0.882,1.472-1.765,2.206-2.5
		c1.471-1.617,2.794-3.382,4.411-5c3.235-3.088,6.323-6.471,9.56-8.971c1.617-1.323,3.234-2.794,4.854-4.117
		c1.471-1.323,2.941-2.5,4.265-3.971l1.912-2.059l1.765-2.354c1.177-1.47,2.207-3.088,3.383-4.705
		c4.117-6.618,7.206-13.677,9.706-21.03c2.353-7.205,4.116-14.559,5.44-21.911c2.794-14.559,3.971-28.529,4.706-41.471
		c0.734-12.941,0.734-25,0.734-35.588s-0.294-19.853-0.44-27.5s-0.294-13.676-0.44-17.794c0-4.118-0.147-6.324-0.147-6.324
		l11.471-0.295c0,0,0,2.206,0,6.323c0,4.117,0,10.147,0,17.794s0,17.059-0.146,27.794c-0.147,10.735-0.589,22.941-1.471,36.176
		c-1.029,13.235-2.5,27.647-5.735,42.647c-1.618,7.5-3.529,15.146-6.323,22.94c-2.795,7.647-6.177,15.441-11.03,22.647
		c-1.176,1.765-2.353,3.677-3.822,5.294l-2.06,2.5l-2.354,2.354c-1.47,1.617-3.382,3.088-5,4.559
		c-1.617,1.323-3.234,2.646-4.854,3.971c-3.382,2.646-6.177,5.441-9.116,8.235c-1.472,1.471-2.795,3.088-4.118,4.559
		c-0.735,0.735-1.472,1.471-2.06,2.353l-1.912,2.5l-1.91,2.5l-0.884,1.177c-0.294,0.441-0.588,0.883-0.882,1.323
		c-1.177,1.765-2.206,3.53-3.383,5.295c-1.912,3.676-3.971,7.353-5.588,11.323c-0.883,1.912-1.618,3.823-2.354,5.882
		c-0.734,2.06-1.471,3.971-2.059,6.03l-1.617,6.176c-0.589,2.06-0.883,4.265-1.324,6.324l-0.588,3.088
		c-0.146,1.029-0.294,2.059-0.44,3.235l-1.029,6.471c-0.441,4.265-1.029,8.529-1.323,12.94c-0.146,2.206-0.294,4.267-0.44,6.471
		c-0.147,2.206-0.147,4.265-0.294,6.472c-0.294,4.265-0.294,8.677-0.441,12.94c0,4.265-0.146,8.529-0.146,12.794"/>
</g>
<g>
	<path fill="rgba(229, 221, 196, 1)" d="M416.681,72.411c0,0,0,0.146-0.147,0.294c0,0.294-0.294,0.735-0.44,1.323
		c-0.44,1.029-1.029,2.354-2.06,3.971c-2.059,3.235-5.44,7.647-10.882,11.765c-5.294,4.265-12.5,8.235-21.028,11.618
		c-1.03,0.44-2.206,0.882-3.235,1.323c-0.589,0.147-1.177,0.441-1.618,0.588c-0.588,0.147-1.177,0.294-1.765,0.589
		c-2.354,0.735-4.706,1.47-7.206,2.205c-2.5,0.735-5,1.177-7.646,1.765c-1.324,0.295-2.646,0.589-3.971,0.883
		s-2.647,0.441-4.118,0.735c-2.794,0.441-5.588,0.883-8.382,1.323c-2.794,0.441-5.735,0.589-8.823,0.883
		c-1.471,0.146-2.94,0.294-4.56,0.441c-1.472,0.146-3.088,0.294-4.56,0.294c-3.088,0.146-6.177,0.294-9.411,0.294
		c-6.323,0.294-12.795,0.294-19.411,0.441c-6.618,0.146-13.235,0.294-20.147,0.735c-6.765,0.294-13.676,0.735-20.735,1.47
		c-6.912,0.735-13.97,1.618-20.882,3.089c-6.912,1.471-13.676,3.677-19.853,7.059c-3.088,1.765-5.882,3.823-8.382,6.177
		c-2.5,2.353-4.559,5.294-6.324,8.235c-0.882,1.471-1.618,3.088-2.353,4.706c-0.588,1.617-1.323,3.235-1.765,5
		c-1.177,3.382-1.912,6.911-2.5,10.44c-0.588,3.53-1.177,7.06-1.471,10.735c-0.147,1.765-0.294,3.677-0.588,5.441l-0.294,2.647
		l-0.441,2.794c-1.177,7.206-3.088,14.265-6.03,20.882c-2.794,6.617-6.47,12.795-10.588,18.383
		c-4.118,5.588-8.824,10.588-13.677,15.146s-10,8.529-15.147,12.205c-10.294,7.354-20.735,13.089-30.294,18.529
		c-0.588,0.295-1.177,0.734-1.765,1.029l-0.882,0.44l-0.882,0.589c-1.177,0.735-2.206,1.471-3.383,2.205
		c-1.176,0.735-2.059,1.618-3.088,2.354c-1.029,0.736-1.912,1.617-2.794,2.5c-0.882,0.883-1.765,1.766-2.647,2.646
		c-0.735,0.883-1.471,1.912-2.353,2.795c-0.735,0.883-1.47,1.911-2.059,2.795c-0.588,0.881-1.324,1.91-1.912,2.793
		c-4.559,7.647-6.765,15.147-7.941,21.472c-1.176,6.322-1.471,11.322-1.618,14.706c0,1.765-0.147,3.088-0.147,3.971
		c0,0.882,0,1.323,0,1.323s0-0.441,0-1.323c0-0.883,0-2.206,0-3.971c0.147-3.384,0.294-8.529,1.324-14.854
		c1.029-6.323,3.235-13.971,7.647-21.765c0.588-1.029,1.176-1.911,1.912-2.941c0.588-1.029,1.324-1.911,2.059-2.794
		c0.735-0.882,1.47-1.911,2.353-2.794c0.882-0.882,1.765-1.766,2.647-2.646c0.882-0.883,1.912-1.765,2.794-2.5
		c1.029-0.734,1.912-1.766,3.088-2.5c1.029-0.734,2.206-1.471,3.235-2.205l0.883-0.59l0.882-0.588
		c0.588-0.294,1.177-0.734,1.765-1.029c9.412-5.588,19.706-11.617,29.853-18.971c5-3.677,10-7.794,14.853-12.205
		c4.706-4.56,9.265-9.56,13.088-15c3.971-5.441,7.353-11.617,10-17.941c2.647-6.471,4.412-13.235,5.441-20.294l0.441-2.646
		l0.294-2.646l0.294-2.646l0.147-2.795c0.294-3.676,0.735-7.353,1.323-10.882c0.588-3.677,1.324-7.354,2.5-10.883
		c0.441-1.765,1.177-3.529,1.912-5.294c0.735-1.765,1.471-3.529,2.5-5.146c1.912-3.383,4.118-6.471,6.765-9.266
		c2.647-2.646,5.735-5,8.971-7.059c6.618-3.823,13.676-6.176,20.882-7.794c7.206-1.617,14.265-2.794,21.323-3.529
		c7.059-0.735,14.118-1.323,20.882-1.765c6.912-0.441,13.677-0.735,20.293-1.029c6.618-0.294,13.09-0.294,19.266-0.735
		c3.089-0.147,6.177-0.294,9.266-0.441c1.47,0,2.94-0.147,4.411-0.441c1.471-0.146,2.941-0.294,4.412-0.44
		c2.941-0.295,5.735-0.589,8.529-1.029c2.794-0.441,5.44-0.883,8.088-1.324c1.323-0.294,2.646-0.441,3.971-0.735
		s2.5-0.588,3.823-0.882c2.5-0.589,5-1.177,7.354-1.765c2.354-0.735,4.56-1.471,6.766-2.206c0.588-0.147,1.028-0.294,1.617-0.589
		c0.589-0.146,1.029-0.44,1.617-0.588c1.029-0.441,2.06-0.882,3.088-1.177c7.941-3.234,14.56-7.059,19.118-10.882
		c4.706-3.823,7.5-7.5,8.972-10.147c0.734-1.323,1.176-2.353,1.47-2.94c0.146-0.295,0.146-0.441,0.295-0.589
		c0-0.146,0.146-0.294,0.146-0.294v-0.147c0.59-1.911,2.647-3.088,4.56-2.5C416.092,68.293,417.269,70.352,416.681,72.411
		L416.681,72.411z"/>
</g>
<g>
	<path fill="rgba(229, 221, 196, 1)" d="M415.208,127.959c0,0,0.301,0.461,0.719,1.337c0.3,0.46,0.6,0.921,0.944,1.682
		c0.225,0.345,0.45,0.69,0.675,1.036c0.226,0.346,0.451,0.692,0.676,1.037c1.876,2.878,5.095,7.344,10.028,10.199
		c2.535,1.299,5.569,1.948,9.057,1.644c3.488-0.305,7.355-1.678,11.426-3.676c1.981-0.964,3.997-2.114,6.044-3.449
		c0.539-0.352,1.078-0.703,1.616-1.054c0.54-0.351,1.078-0.703,1.691-0.939c1.078-0.703,2.231-1.291,3.492-1.947
		c1.261-0.659,2.521-1.315,3.856-1.858c1.336-0.543,2.671-1.085,4.008-1.628c2.746-0.971,5.568-1.826,8.647-2.521
		c5.976-1.435,12.294-2.109,19.029-1.907c6.629,0.273,13.643,1.608,20.46,4.055c6.816,2.446,13.48,6.307,19.475,11.26
		c1.482,1.331,2.888,2.546,4.263,3.948l1.073,0.941l1.042,1.125c0.633,0.736,1.299,1.287,2.007,2.138
		c2.716,2.988,5.067,5.885,7.567,9.014c9.668,12.238,18.917,25.243,30.418,36.287c5.604,5.534,11.964,10.577,18.701,14.552
		c6.814,4.089,14.223,6.973,21.751,8.627c7.529,1.655,15.362,2.127,23.025,1.396c1.927-0.107,3.812-0.515,5.737-0.623
		c1.852-0.223,3.736-0.631,5.62-1.038c1.959-0.293,3.77-0.816,5.578-1.339c1.885-0.409,3.692-0.932,5.579-1.339
		c3.617-1.045,7.459-1.748,11.304-2.448c1.958-0.293,3.811-0.516,5.769-0.809c1.927-0.109,3.777-0.33,5.812-0.509
		c7.706-0.428,15.432,0.114,22.854,1.837l2.742,0.675l2.711,0.857c1.828,0.449,3.59,1.269,5.279,1.974
		c3.45,1.523,6.868,3.232,9.932,5.339c0.773,0.481,1.547,0.96,2.288,1.625c0.774,0.481,1.515,1.146,2.288,1.626
		c1.407,1.216,2.922,2.362,4.222,3.646c2.706,2.502,5.196,5.145,7.581,7.856c4.658,5.496,8.379,11.438,11.659,17.177
		c1.586,2.903,3.172,5.807,4.759,8.711c0.793,1.453,1.511,2.789,2.337,4.055c0.9,1.383,1.727,2.649,2.552,3.915
		c7.078,10.152,15.564,17.748,23.859,23.169c1.032,0.64,2.064,1.28,3.095,1.919c1.033,0.641,1.988,1.165,3.021,1.806
		c2.022,0.979,4.117,2.074,5.988,2.823c2.055,0.794,3.816,1.613,5.721,2.177c1.795,0.636,3.624,1.083,5.237,1.673
		c6.733,1.847,12.207,2.708,15.856,3.118c3.645,0.413,5.615,0.604,5.615,0.604s-1.971-0.192-5.649-0.419
		c-3.755-0.341-9.047-1.156-15.995-2.861c-1.721-0.521-3.441-1.038-5.346-1.604c-1.904-0.562-3.666-1.383-5.719-2.177
		c-2.055-0.793-3.968-1.844-6.096-2.753c-0.956-0.524-2.096-1.095-3.128-1.735c-1.032-0.64-2.172-1.21-3.203-1.85
		c-8.511-5.28-17.177-12.921-24.549-23.047c-0.933-1.196-1.833-2.579-2.659-3.845c-0.901-1.382-1.728-2.649-2.521-4.099
		c-1.511-2.79-3.205-5.623-4.79-8.526c-3.389-5.668-7.143-11.426-11.726-16.807c-2.309-2.596-4.799-5.24-7.43-7.625
		c-1.3-1.286-2.739-2.317-4.178-3.346c-0.667-0.551-1.44-1.03-2.214-1.511c-0.666-0.55-1.44-1.03-2.214-1.508
		c-2.986-1.991-6.329-3.586-9.706-4.994c-1.721-0.52-3.376-1.408-5.204-1.857l-2.634-0.743l-2.674-0.561
		c-7.162-1.565-14.705-2.061-22.154-1.473c-1.851,0.224-3.702,0.445-5.629,0.554c-1.852,0.222-3.735,0.631-5.587,0.854
		c-3.66,0.745-7.32,1.491-11.046,2.608c-1.811,0.521-3.694,0.931-5.611,1.524c-1.884,0.408-3.8,1.002-5.684,1.41
		c-1.885,0.407-3.878,0.885-5.729,1.107c-1.959,0.293-3.917,0.585-5.952,0.764c-7.955,0.756-16.109,0.494-24.113-1.178
		c-8.003-1.675-15.885-4.576-23.063-8.756c-7.179-4.179-13.904-9.313-19.875-14.937c-12.125-11.293-21.737-24.388-31.363-36.325
		c-2.426-3.014-4.884-5.842-7.376-8.483c-0.557-0.621-1.298-1.286-1.932-2.022l-0.967-1.011l-0.998-0.825
		c-1.406-1.215-2.631-2.388-3.964-3.488c-5.509-4.446-11.613-7.687-17.81-9.884c-6.192-2.197-12.507-3.166-18.586-3.305
		c-6.08-0.138-11.958,0.741-17.353,2.125c-2.679,0.599-5.319,1.499-7.774,2.444c-1.229,0.473-2.381,1.06-3.609,1.533
		c-1.228,0.473-2.196,1.105-3.35,1.692c-1.045,0.517-2.231,1.291-3.383,1.878c-0.539,0.352-1.079,0.703-1.617,1.054
		c-0.539,0.352-0.97,0.632-1.509,0.984c-2.155,1.405-4.387,2.695-6.585,3.8c-4.395,2.209-8.907,4.004-13.59,4.596
		c-1.163,0.101-2.4,0.087-3.562,0.189c-1.128-0.084-2.334-0.282-3.465-0.367c-1.098-0.27-2.194-0.539-3.29-0.808
		c-1.063-0.454-2.054-0.794-3.01-1.318c-3.752-1.985-6.458-4.486-8.724-6.783c-1.042-1.126-1.899-2.208-2.759-3.289
		c-0.783-0.966-1.458-2.002-2.059-2.923c-0.3-0.46-0.601-0.921-0.826-1.266c-0.225-0.346-0.451-0.691-0.676-1.037
		c-0.375-0.575-0.644-1.221-0.944-1.682c-0.525-0.806-0.717-1.336-0.717-1.336l0,0c-1.276-1.958-0.744-4.438,1.055-5.447
		C411.696,125.163,414.041,125.932,415.208,127.959C415.316,127.889,415.208,127.959,415.208,127.959z"/>
</g>
<g>
	<path fill="rgba(229, 221, 196, 1)" d="M200.322,133.082c0,0-0.347-0.475-1.073-1.22c-0.725-0.744-1.768-2.169-3.166-3.333
		c-0.638-0.626-1.365-1.369-2.297-2.146s-1.865-1.553-3-2.361c-1.137-0.808-2.393-1.529-3.618-2.455
		c-1.344-0.84-2.717-1.476-4.266-2.347c-1.462-0.754-3.161-1.332-4.828-2.118c-1.698-0.579-3.484-1.277-5.302-1.771
		c-3.754-0.899-7.832-1.742-11.951-1.646c-1.059,0.046-2.087-0.114-3.147-0.068c-1.059,0.046-2.15,0.297-3.21,0.343l-1.708,0.156
		l-1.621,0.275c-1.091,0.251-2.183,0.503-3.274,0.753c-1.091,0.251-2.097,0.622-3.219,1.079l-1.566,0.598l-0.767,0.197l-0.799,0.402
		l-3.077,1.521c-0.562,0.229-1.124,0.457-1.48,0.717l-1.511,0.923l-2.818,1.878c-0.475,0.347-0.949,0.694-1.425,1.041l-1.338,1.161
		c-0.949,0.694-1.693,1.42-2.643,2.114c-0.864,0.814-1.814,1.508-2.558,2.235c-0.862,0.812-1.694,1.42-2.557,2.233
		c-0.95,0.695-1.694,1.421-2.644,2.116c-0.949,0.694-1.78,1.301-2.644,2.114c-0.95,0.695-1.781,1.302-2.611,1.91
		c-1.781,1.302-3.53,2.398-5.397,3.582c-1.749,1.096-3.497,2.192-5.333,3.17c-3.466,1.988-6.779,3.682-9.977,5.291
		c-3.165,1.403-6.092,2.631-8.78,3.687c-2.691,1.057-5.024,1.85-7.002,2.386c-3.868,1.188-6.256,1.659-6.256,1.659
		s2.301-0.59,6.082-1.896c1.891-0.654,4.224-1.449,6.829-2.624c2.688-1.055,5.529-2.402,8.606-3.924
		c3.078-1.521,6.424-3.421,9.803-5.528c1.63-1.01,3.379-2.106,5.041-3.321c1.663-1.216,3.53-2.399,5.105-3.732
		c0.831-0.607,1.781-1.302,2.612-1.909s1.693-1.42,2.525-2.028c0.862-0.813,1.693-1.42,2.557-2.234
		c0.863-0.813,1.607-1.539,2.47-2.352s1.607-1.54,2.47-2.353c0.863-0.813,1.813-1.508,2.675-2.32l1.337-1.16
		c0.476-0.348,0.864-0.814,1.425-1.042l2.936-1.965l1.425-1.042c0.476-0.348,1.037-0.576,1.599-0.804l3.196-1.608l0.799-0.402
		l0.886-0.284l1.685-0.686c1.124-0.457,2.247-0.914,3.337-1.166c1.092-0.251,2.301-0.589,3.393-0.84l1.74-0.362l1.708-0.155
		c1.178-0.133,2.357-0.266,3.328-0.43c1.178-0.133,2.325-0.06,3.385-0.106c4.443-0.151,8.759,0.519,12.837,1.362
		c2.022,0.525,3.927,1.136,5.746,1.629c1.786,0.698,3.572,1.396,5.15,2.063c1.549,0.872,3.129,1.539,4.592,2.292
		c1.343,0.84,2.685,1.68,3.942,2.402c1.223,0.926,2.273,1.615,3.293,2.51c0.932,0.776,1.95,1.671,2.676,2.417
		c1.658,1.52,2.645,2.62,3.458,3.483c0.726,0.745,1.073,1.219,1.073,1.219c0.813,0.863,0.796,2.334-0.068,3.146
		C202.692,134.081,201.223,134.062,200.322,133.082C200.528,133.112,200.322,133.082,200.322,133.082z"/>
</g>
<g>
	<path fill="rgba(229, 221, 196, 1)" d="M354.104,106.485C354.118,106.338,354.118,106.338,354.104,106.485c-0.017-1.33,0.831-2.43,2.219-3.035
		c1.187-0.03,2.269,0.962,2.301,2.148c0,0-0.043,0.438,0.044,1.039c-0.072,0.73-0.011,1.623,0.021,2.809
		c0.062,2.372,0.008,5.912-0.57,10.287c-0.592,4.523-1.564,9.895-3.472,15.766c-1.92,6.018-5.072,12.505-10.228,18.353
		c-2.497,2.857-5.566,5.512-9.191,7.814c-3.625,2.303-7.631,3.979-11.887,5.186c-8.353,2.281-17.247,4.066-26.3,5.983
		c-9.069,2.062-18.577,4.083-27.248,8.107c-4.343,2.084-8.304,4.798-11.604,8.317c-1.651,1.758-3.024,3.692-4.265,5.786
		c-1.24,2.096-2.202,4.364-3.018,6.648c-1.631,4.567-2.414,9.515-3.913,14.245c-1.367,4.889-3.015,9.604-4.791,14.157
		c-3.701,9.094-8.531,17.634-15.119,24.522c-3.286,3.371-6.838,6.42-10.625,8.855c-0.803,0.661-1.885,1.145-2.835,1.79
		c-0.935,0.501-2.017,0.985-2.953,1.484c-2.019,0.984-4.036,1.968-5.629,3.141c-1.74,1.16-3.214,2.641-4.544,4.134
		c-1.183,1.51-2.526,3.15-3.577,4.82c-2.249,3.325-3.925,6.855-5.441,10.253c-3.047,6.941-5.011,13.396-6.481,19.311
		c-1.467,5.914-2.571,11.125-3.282,15.34c-0.872,4.348-1.348,7.699-1.579,10.041c-0.23,2.342-0.344,3.512-0.344,3.512
		s0.115-1.172,0.344-3.512c0.23-2.341,0.707-5.693,1.431-10.056c0.71-4.215,1.667-9.44,3.136-15.354
		c1.468-5.915,3.301-12.532,6.202-19.487c1.37-3.412,3.193-6.927,5.309-10.413c2.102-3.339,4.805-6.768,8.311-9.378
		c1.754-1.304,3.772-2.288,5.644-3.286c0.919-0.354,1.856-0.853,2.805-1.499c0.95-0.645,1.885-1.146,2.837-1.79
		c3.77-2.289,7.174-5.353,10.314-8.738c6.283-6.771,10.966-15.325,14.507-24.286c1.618-4.422,3.262-9.136,4.47-13.894
		c1.5-4.73,2.135-9.692,3.795-14.552c0.816-2.285,1.792-4.701,3.047-6.941c1.255-2.241,2.787-4.306,4.452-6.211
		c3.478-3.797,7.76-6.774,12.264-8.99c9.151-4.42,18.66-6.441,27.744-8.65c9.069-2.064,17.978-3.994,26.037-6.306
		c3.949-1.09,7.663-2.793,10.82-4.847c3.158-2.055,5.919-4.59,8.256-7.316c4.527-5.464,7.487-11.527,9.219-17.119
		c1.879-5.579,2.675-10.673,3.093-14.917s0.456-7.641,0.379-9.863c-0.047-1.04,0.04-1.917-0.049-2.517
		C354.076,106.777,354.104,106.485,354.104,106.485L354.104,106.485z"/>
</g>
<g>
	<path fill="rgba(229, 221, 196, 1)" d="M535.349,143.003c0,0,1.119,0.018,3.304-0.079c1.119,0.02,2.376-0.017,3.904-0.164
		c1.528-0.15,3.248-0.215,5.104-0.338c3.849-0.301,8.568-0.799,13.859-1.849c5.347-0.912,11.261-2.374,17.802-4.252
		c6.403-1.82,13.379-4.191,20.929-6.321c3.705-1.039,7.796-1.914,11.916-2.325c4.121-0.412,8.601-0.335,12.868,0.78
		c4.405,1.061,8.406,3.081,12.031,5.731c0.934,0.731,1.812,1.324,2.746,2.056c0.797,0.785,1.73,1.517,2.474,2.165
		c1.595,1.574,3.19,3.146,4.784,4.718c6.27,6.018,13.871,11.015,22.06,14.342c8.19,3.326,17.023,5.12,25.821,5.657
		c8.797,0.538,17.447-0.454,25.628-2.207c8.181-1.753,15.971-4.457,22.827-7.894c3.428-1.718,6.801-3.571,9.791-5.586
		c2.934-2.152,5.484-4.465,7.596-7.074c4.222-5.219,6.774-11.027,8.102-16.334c1.327-5.308,1.564-10.171,1.593-13.996
		c-0.029-3.96-0.323-7.016-0.693-9.089c-0.372-2.073-0.679-3.216-0.679-3.216s0.309,1.144,0.679,3.216
		c0.37,2.074,0.664,5.129,0.886,9.17c0.027,3.959-0.209,8.821-1.4,14.074c-1.327,5.306-3.633,11.331-7.991,16.606
		c-2.11,2.61-4.687,5.25-7.621,7.401c-2.934,2.153-6.308,4.005-9.68,5.859c-6.993,3.493-14.728,6.333-22.988,8.277
		s-17.046,2.99-26.06,2.701c-9.015-0.291-18.121-1.973-26.637-5.324c-8.518-3.353-16.392-8.239-23.046-14.418
		c-1.595-1.572-3.135-3.009-4.866-4.525c-0.74-0.65-1.674-1.379-2.417-2.03c-0.741-0.65-1.756-1.189-2.498-1.838
		c-3.513-2.379-7.267-4.181-11.152-5.135c-7.905-1.856-15.949-0.16-23.226,1.859c-7.357,2.211-14.331,4.583-20.817,6.594
		c-6.486,2.014-12.536,3.531-18.154,4.557c-5.481,0.967-10.284,1.656-14.268,2.015c-1.993,0.177-3.85,0.3-5.377,0.447
		c-1.527,0.148-2.783,0.185-3.904,0.166c-2.047,0.042-3.304,0.077-3.304,0.077c-1.256,0.037-2.302-0.966-2.281-2.085
		C533.09,144.083,534.093,143.039,535.349,143.003C535.212,143.059,535.349,143.003,535.349,143.003z"/>
</g>
<g>
	<path fill="rgba(229, 221, 196, 1)" d="M570.412,186.74c0,0-0.325,0.69-0.962,1.813c-0.262,0.604-0.767,1.294-1.214,2.158
		c-0.451,0.864-1.145,1.812-1.783,2.935c-0.639,1.123-1.46,2.245-2.342,3.452c-0.884,1.208-1.895,2.589-3.023,3.883
		c-2.32,2.675-5.074,5.692-8.787,8.276c-3.711,2.583-8.323,4.905-13.934,6.101c-5.611,1.193-12.276,1.088-19.026-0.142
		c-1.63-0.265-3.378-0.615-5.006-0.879c-0.847-0.089-1.511-0.177-2.357-0.267l-2.3-0.093c-3.154,0.077-6.078,0.588-8.89,1.444
		c-5.689,1.8-10.626,4.812-14.739,8.691c-4.231,3.792-7.695,8.279-10.201,13.202c-2.508,4.922-4.24,10.278-4.705,15.898
		c-0.648,5.618,0.878,11.504,0.601,16.862c-0.095,5.361-0.902,10.203-1.757,14.609c-0.973,4.321-2.297,8.122-3.485,11.492
		c-1.308,3.282-2.482,6.131-3.576,8.378c-2.192,4.489-3.777,6.906-3.777,6.906s1.468-2.503,3.54-7.08
		c1.095-2.246,2.149-5.183,3.274-8.467c1.126-3.282,2.212-7.258,3.122-11.491c0.856-4.408,1.418-9.163,1.331-14.524
		c0.151-5.188-1.549-11.332-1.02-17.038c0.411-5.794,1.968-11.41,4.418-16.504c2.515-5.181,5.923-9.841,10.044-13.98
		c4.239-4.052,9.246-7.41,15.124-9.469c2.939-1.029,6.171-1.712,9.57-1.875c0.908,0.002,1.699-0.082,2.546,0.007
		c0.845,0.089,1.874,0.179,2.721,0.269c1.628,0.264,3.376,0.614,5.005,0.878c6.515,1.057,12.396,0.987,17.524-0.295
		c5.066-1.195,9.188-3.346,12.537-5.931c3.403-2.412,5.913-5.345,8.053-8.019c1.01-1.38,2.073-2.589,2.776-3.797
		c0.884-1.208,1.522-2.331,2.162-3.453c0.574-1.036,1.206-1.899,1.654-2.762c0.45-0.863,0.835-1.642,1.097-2.246
		c0.638-1.123,0.961-1.813,0.961-1.813c0.576-1.036,2.158-1.204,3.524-0.335C570.305,184.146,570.987,185.704,570.412,186.74
		L570.412,186.74z"/>
</g>
<g>
	<path fill="rgba(229, 221, 196, 1)" d="M232.032,13.125c0,0,1.291-0.147,4.3-0.294c2.584-0.147,6.451-0.441,11.614-0.735
		c5.16-0.294,11.178-0.588,18.062-0.882c6.88-0.294,15.047-0.735,23.65-1.029c8.602-0.294,18.062-0.588,27.954-0.883
		c9.893-0.294,20.21-0.588,30.964-0.735c10.749-0.147,21.931-0.441,33.109-0.441c11.18,0,22.791-0.147,34.405-0.147
		c11.61,0,23.219,0.147,34.402,0.147s22.363,0.294,33.111,0.441c10.751,0.147,21.072,0.441,30.965,0.735
		c9.889,0.147,19.35,0.588,27.951,0.883c8.602,0.294,16.771,0.588,23.65,0.882c6.885,0.294,13.336,0.588,18.064,0.882
		c5.159,0.294,9.03,0.588,11.611,0.735c2.579,0.147,4.301,0.294,4.301,0.294v0.588c0,0-92.028,0.147-184.484,0.294
		c-92.024-0.147-184.481-0.294-184.481-0.294v-0.441H232.032z"/>
</g>
</svg>
