<?xml version="1.0" encoding="utf-8"?>
<!-- Generator: Adobe Illustrator 16.0.0, SVG Export Plug-In . SVG Version: 6.00 Build 0)  -->
<!DOCTYPE svg PUBLIC "-//W3C//DTD SVG 1.1//EN" "http://www.w3.org/Graphics/SVG/1.1/DTD/svg11.dtd">
<svg version="1.1" id="Layer_1" xmlns="http://www.w3.org/2000/svg" xmlns:xlink="http://www.w3.org/1999/xlink" x="0px" y="0px"
	 width="71.253px" height="96.607px" viewBox="0 0 71.253 96.607" enable-background="new 0 0 71.253 96.607" xml:space="preserve">
<g>
	<path fill="#6D6D2E" d="M34.534,95.213c0,0-0.002-0.346-0.006-0.995c0.001-0.633,0.019-1.542,0.064-2.689
		c0.098-2.297,0.308-5.55,0.808-9.412c0.489-3.863,1.25-8.339,2.411-13.051c0.559-2.358,1.262-4.767,2.012-7.194
		c0.793-2.417,1.641-4.857,2.631-7.241l0.736-1.788l0.797-1.758c0.512-1.176,1.098-2.315,1.666-3.447
		c1.146-2.261,2.402-4.417,3.682-6.458c0.641-1.019,1.33-1.984,1.969-2.947c0.664-0.947,1.365-1.839,2.02-2.723
		c1.369-1.724,2.695-3.323,4.021-4.706c1.268-1.436,2.598-2.59,3.691-3.684c1.182-1.007,2.188-1.906,3.051-2.604
		c1.765-1.345,2.773-2.112,2.773-2.112s-0.938,0.851-2.574,2.339c-0.797,0.766-1.717,1.744-2.795,2.835
		c-0.988,1.177-2.195,2.418-3.316,3.937c-1.182,1.465-2.344,3.145-3.53,4.936c-0.562,0.918-1.168,1.84-1.731,2.815
		c-0.543,0.99-1.127,1.98-1.662,3.021c-1.064,2.083-2.096,4.266-3.012,6.539c-0.455,1.139-0.922,2.278-1.316,3.455l-0.619,1.753
		l-0.559,1.777c-0.75,2.367-1.359,4.777-1.918,7.152c-0.516,2.388-0.988,4.742-1.326,7.041c-0.717,4.589-1.072,8.911-1.217,12.61
		c-0.158,3.698-0.088,6.774,0.006,8.905c0.049,1.064,0.105,1.896,0.151,2.447c0.05,0.536,0.077,0.821,0.077,0.821L34.534,95.213z"/>
</g>
<g>
	<path fill="#6D6D2E" d="M2.194,12.667c0,0,1.338,0.624,3.513,2.022c1.081,0.708,2.379,1.596,3.806,2.699
		c1.417,1.114,3.003,2.399,4.621,3.93c1.623,1.521,3.334,3.231,5.01,5.165c1.701,1.912,3.373,4.039,4.994,6.321
		c1.63,2.278,3.163,4.74,4.617,7.306c0.73,1.28,1.392,2.611,2.086,3.936c0.622,1.354,1.305,2.696,1.882,4.081
		c1.184,2.758,2.267,5.566,3.167,8.385c0.45,1.41,0.918,2.807,1.274,4.211c0.373,1.402,0.789,2.78,1.074,4.161
		c0.299,1.377,0.65,2.727,0.889,4.063c0.244,1.337,0.481,2.646,0.713,3.919c0.351,2.56,0.761,4.982,0.937,7.233
		c0.108,1.125,0.214,2.204,0.312,3.229c0.08,1.025,0.119,2.001,0.174,2.918c0.111,1.833,0.197,3.434,0.195,4.75
		c0.043,2.637,0.065,4.144,0.065,4.144l-6.994-0.277c0,0,0.083-1.436,0.229-3.947c0.097-1.258,0.125-2.784,0.151-4.536
		c0.012-0.876,0.044-1.811,0.042-2.793c-0.022-0.982-0.045-2.016-0.069-3.094c-0.005-2.163-0.227-4.485-0.377-6.957
		c-0.131-1.229-0.265-2.492-0.402-3.783c-0.131-1.294-0.373-2.596-0.559-3.936c-0.173-1.342-0.473-2.678-0.729-4.045
		c-0.24-1.372-0.588-2.731-0.917-4.112c-0.661-2.761-1.498-5.523-2.435-8.254c-0.455-1.372-1.015-2.702-1.516-4.055
		c-0.572-1.318-1.114-2.65-1.726-3.938c-1.217-2.575-2.521-5.067-3.937-7.393c-1.407-2.33-2.879-4.521-4.399-6.509
		c-1.495-2.009-3.044-3.806-4.525-5.419c-1.478-1.621-2.942-3.001-4.26-4.205c-1.327-1.193-2.546-2.167-3.565-2.949
		C3.483,13.389,2.194,12.667,2.194,12.667z"/>
</g>
</svg>
