<?xml version="1.0" encoding="utf-8"?>
<!-- Generator: Adobe Illustrator 16.0.4, SVG Export Plug-In . SVG Version: 6.00 Build 0)  -->
<!DOCTYPE svg PUBLIC "-//W3C//DTD SVG 1.1//EN" "http://www.w3.org/Graphics/SVG/1.1/DTD/svg11.dtd">
<svg version="1.1" id="Layer_1" xmlns="http://www.w3.org/2000/svg" xmlns:xlink="http://www.w3.org/1999/xlink" x="0px" y="0px"
	 width="71.253px" height="96.608px" viewBox="0 0 71.253 96.608" enable-background="new 0 0 71.253 96.608" xml:space="preserve">
<g>
	<path fill="#6D6D2E" d="M34.534,95.213c0,0-0.002-0.346-0.006-0.995c0.001-0.633,0.019-1.542,0.065-2.69
		c0.098-2.296,0.308-5.549,0.808-9.412c0.489-3.863,1.25-8.339,2.411-13.05c0.559-2.359,1.261-4.767,2.011-7.195
		c0.794-2.417,1.641-4.857,2.631-7.241l0.737-1.788l0.796-1.758c0.513-1.176,1.098-2.315,1.667-3.447
		c1.147-2.261,2.403-4.417,3.681-6.458c0.641-1.019,1.33-1.985,1.97-2.947c0.663-0.948,1.365-1.839,2.018-2.723
		c1.37-1.724,2.696-3.323,4.023-4.706c1.266-1.436,2.597-2.59,3.691-3.684c1.182-1.007,2.188-1.906,3.051-2.603
		c1.764-1.345,2.772-2.113,2.772-2.113s-0.936,0.851-2.574,2.339c-0.796,0.766-1.717,1.744-2.794,2.835
		c-0.989,1.177-2.195,2.418-3.316,3.937c-1.183,1.465-2.344,3.144-3.531,4.935c-0.562,0.918-1.168,1.84-1.732,2.816
		c-0.542,0.99-1.127,1.98-1.661,3.021c-1.065,2.083-2.097,4.266-3.013,6.539c-0.454,1.139-0.921,2.279-1.316,3.455l-0.619,1.753
		l-0.558,1.778c-0.751,2.367-1.359,4.777-1.919,7.152c-0.515,2.388-0.987,4.742-1.325,7.041c-0.718,4.589-1.072,8.911-1.218,12.61
		c-0.157,3.699-0.087,6.775,0.006,8.906c0.05,1.064,0.106,1.895,0.152,2.447c0.05,0.536,0.077,0.821,0.077,0.821L34.534,95.213z"/>
</g>
<g>
	<path fill="#6D6D2E" d="M2.194,12.667c0,0,1.338,0.624,3.513,2.023c1.081,0.708,2.379,1.595,3.806,2.699
		c1.417,1.114,3.003,2.399,4.621,3.929c1.623,1.522,3.334,3.232,5.01,5.166c1.701,1.912,3.373,4.039,4.994,6.321
		c1.63,2.278,3.163,4.74,4.617,7.305c0.73,1.281,1.392,2.612,2.086,3.936c0.622,1.355,1.305,2.696,1.882,4.081
		c1.183,2.758,2.266,5.566,3.167,8.385c0.45,1.41,0.918,2.806,1.274,4.211c0.373,1.402,0.789,2.78,1.074,4.161
		c0.299,1.377,0.65,2.726,0.888,4.062c0.244,1.337,0.482,2.646,0.714,3.919c0.35,2.56,0.76,4.983,0.936,7.234
		c0.108,1.125,0.213,2.204,0.312,3.229c0.079,1.026,0.119,2.001,0.174,2.918c0.11,1.833,0.197,3.434,0.195,4.75
		c0.042,2.637,0.065,4.144,0.065,4.144l-6.994-0.278c0,0,0.083-1.435,0.23-3.947c0.097-1.258,0.125-2.784,0.151-4.536
		c0.012-0.876,0.044-1.811,0.042-2.793c-0.022-0.982-0.045-2.016-0.069-3.094c-0.005-2.163-0.227-4.485-0.377-6.957
		c-0.131-1.229-0.265-2.492-0.402-3.783c-0.131-1.294-0.373-2.596-0.559-3.935c-0.173-1.342-0.473-2.678-0.729-4.045
		c-0.24-1.372-0.588-2.732-0.917-4.113c-0.661-2.76-1.498-5.523-2.435-8.254c-0.455-1.372-1.015-2.702-1.516-4.054
		c-0.572-1.319-1.114-2.651-1.725-3.938c-1.217-2.575-2.522-5.067-3.937-7.392c-1.407-2.33-2.879-4.521-4.399-6.509
		c-1.495-2.009-3.044-3.806-4.526-5.419c-1.477-1.621-2.942-3.001-4.26-4.205c-1.327-1.194-2.546-2.167-3.565-2.949
		C3.483,13.389,2.194,12.667,2.194,12.667z"/>
</g>
<g>
	<g>
		<path fill="#EEE47F" d="M65.603,1.242l-3.462,3.917c-1.148,1.302-2.284,2.61-3.406,3.926c-0.61,0.606-1.273,1.156-1.873,1.773
			c-0.62,0.596-1.229,1.202-1.832,1.814c-1.221,1.21-2.396,2.462-3.582,3.705c-1.155,1.269-2.326,2.524-3.434,3.832
			c-1.141,1.281-2.197,2.627-3.285,3.949l-1.55,2.04c-0.529,0.672-1.004,1.378-1.493,2.076c-0.48,0.703-0.994,1.386-1.428,2.115
			l-1.352,2.156l-1.075,1.714l-1.08-1.715l-1.332-2.116c-0.424-0.716-0.946-1.379-1.417-2.07c-0.478-0.687-0.961-1.371-1.487-2.028
			l-1.547-1.99l-1.615-1.943c-0.528-0.656-1.109-1.271-1.661-1.908c-1.103-1.276-2.277-2.494-3.429-3.729
			c-1.179-1.212-2.356-2.426-3.572-3.605c-0.599-0.598-1.211-1.182-1.826-1.764l-0.927-0.868c-0.325-0.271-0.637-0.558-0.916-0.88
			c-1.11-1.293-2.253-2.559-3.396-3.833C12.487,4.536,11.338,3.263,10.169,2c1.474,0.891,2.92,1.831,4.337,2.809
			c1.425,0.971,2.814,1.989,4.203,3.015c0.697,0.511,1.239,1.188,1.884,1.754c0.624,0.59,1.245,1.183,1.852,1.79
			c1.233,1.196,2.43,2.429,3.628,3.661c1.173,1.258,2.366,2.497,3.494,3.8c0.564,0.651,1.155,1.277,1.697,1.949l1.654,1.99
			l1.591,2.048c0.539,0.676,1.041,1.383,1.536,2.096c0.49,0.718,1.024,1.261,1.471,2.013L38.909,31h-2.155l1.406-2.106
			c0.453-0.76,0.98-1.394,1.477-2.12c0.504-0.721,0.997-1.416,1.539-2.105l1.592-2.078c1.112-1.352,2.195-2.722,3.357-4.027
			c1.131-1.334,2.322-2.606,3.497-3.898c1.204-1.263,2.399-2.532,3.637-3.759c0.612-0.622,1.229-1.236,1.858-1.839
			c0.643-0.588,1.211-1.255,1.869-1.828c0.693-0.536,1.392-1.063,2.1-1.579c0.709-0.514,1.404-1.042,2.13-1.534
			C62.646,3.119,64.108,2.153,65.603,1.242z"/>
	</g>
</g>
</svg>
